<?xml version="1.0" encoding="utf-8"?>
<!-- Generator: Adobe Illustrator 16.0.0, SVG Export Plug-In . SVG Version: 6.00 Build 0)  -->
<!DOCTYPE svg PUBLIC "-//W3C//DTD SVG 1.1//EN" "http://www.w3.org/Graphics/SVG/1.1/DTD/svg11.dtd">
<svg version="1.1" id="Layer_1" xmlns="http://www.w3.org/2000/svg" x="0px" y="0px"
     width="514.957px" height="80.176px" viewBox="0 0 514.957 80.176" enable-background="new 0 0 514.957 80.176"
     xml:space="preserve">
<g>
	<path fill="#FFFFFF" d="M128.128,18.74h-19.871V8c18.081,0,33.387,0,51.559,0v10.74h-19.873v51.914h-11.814L128.128,18.74
		L128.128,18.74z"/>
    <path fill="#FFFFFF" d="M157.228,52.484c0.717,5.459,5.461,9.399,13.158,9.399c4.029,0,9.31-1.521,11.815-4.12l6.982,6.896
		c-4.655,4.83-12.263,7.161-18.977,7.161c-15.216,0-24.257-9.399-24.257-23.543c0-13.426,9.131-23.092,23.453-23.092
		c14.77,0,23.989,9.129,22.287,27.299H157.228L157.228,52.484z M181.217,43.447c-0.715-5.729-5.19-8.596-11.458-8.596
		c-5.908,0-10.74,2.867-12.352,8.596H181.217z"/>
    <path fill="#FFFFFF" d="M224.455,38.254c-3.135-2.955-6.715-3.939-10.923-3.939c-5.19,0-8.056,1.611-8.056,4.388
		c0,2.861,2.595,4.475,8.235,4.832c8.325,0.533,18.889,2.416,18.889,14.142c0,7.786-6.353,14.5-18.979,14.5
		c-6.981,0-13.963-1.159-20.406-7.874l5.369-7.791c3.132,3.491,10.293,6.09,15.217,6.178c4.117,0.095,7.967-2.059,7.967-5.278
		c0-3.043-2.506-4.296-8.772-4.657c-8.324-0.627-18.261-3.665-18.261-13.694c0-10.205,10.563-13.783,18.619-13.783
		c6.893,0,12.087,1.34,17.189,5.816L224.455,38.254z"/>
    <path fill="#FFFFFF" d="M252.195,14.086v12.53h12.172v9.399h-12.262V55.08c0,4.204,2.328,6.268,5.729,6.268
		c1.701,0,3.671-0.535,5.279-1.346l3.045,9.312c-3.132,1.252-5.729,1.789-9.041,1.877c-9.575,0.359-15.843-5.1-15.843-16.111V36.015
		h-8.235v-9.399h8.235V15.248L252.195,14.086z"/>
    <path fill="#FFFFFF" d="M345.148,70.654V47.023c0-5.814-3.045-11.098-9.041-11.098c-5.906,0-9.396,5.283-9.396,11.098v23.631
		h-10.922V26.438h10.115l0.807,5.371c2.328-4.476,7.426-6.087,11.635-6.087c5.281,0,10.562,2.147,13.07,8.238
		c3.939-6.268,9.039-8.06,14.77-8.06c12.529,0,18.707,7.698,18.707,20.946v23.811H373.97V46.846c0-5.816-2.416-10.741-8.322-10.741
		c-5.91,0-9.582,5.104-9.582,10.918v23.633h-10.918V70.654z"/>
    <path fill="#FFFFFF" d="M466.171,60.002c-1.613,0.811-3.578,1.346-5.281,1.346c-3.402,0-5.729-2.062-5.729-6.268V36.015h12.264
		v-9.399H455.25v-12.53l-10.92,1.161v11.369l-17.811-0.042l-0.361,6.039c-2.506-4.382-8.145-7.159-14.051-7.159
		c-12.891-0.092-23.006,7.876-23.006,23.091c0,15.49,9.664,23.545,22.736,23.456c4.922-0.092,11.814-2.599,14.32-7.791l0.535,6.444
		h10.299V36.015h7.336V55.08c0,11.013,6.268,16.472,15.846,16.111c3.312-0.088,5.91-0.625,9.039-1.877L466.171,60.002z
		 M413.091,61.971c-7.254,0-13.072-5.011-13.072-13.427c0-8.411,5.818-13.333,13.072-13.333
		C430.279,35.212,430.279,61.971,413.091,61.971z"/>
    <path fill="#FFFFFF" d="M311.898,48.635c0,12.713-8.684,23.004-23.003,23.004c-14.324,0-22.915-10.291-22.915-23.004
		c0-12.62,8.771-23.004,22.825-23.004S311.898,36.015,311.898,48.635z M276.902,48.635c0,6.717,4.026,12.98,11.993,12.98
		c7.968,0,11.993-6.266,11.993-12.98c0-6.624-4.656-13.068-11.993-13.068C281.016,35.567,276.902,42.012,276.902,48.635z"/>
    <path fill="#FFFFFF" d="M514.957,48.635c0,12.713-8.684,23.004-23.006,23.004c-14.32,0-22.914-10.291-22.914-23.004
		c0-12.62,8.771-23.004,22.824-23.004S514.957,36.015,514.957,48.635z M479.957,48.635c0,6.717,4.027,12.98,11.994,12.98
		s11.996-6.266,11.996-12.98c0-6.624-4.656-13.068-11.996-13.068C484.074,35.567,479.957,42.012,479.957,48.635z"/>
</g>
    <g>
	<path fill="#DA4F33" d="M0,40.088C0,17.945,17.946,0,40.088,0c22.143,0,40.086,17.945,40.086,40.088
		c0,22.141-17.943,40.088-40.086,40.088C17.946,80.176,0,62.229,0,40.088z"/>
        <g>
		<g>
			
				<path fill="#FFFFFF" stroke="#FFFFFF" stroke-width="1.7059" stroke-linecap="round" stroke-linejoin="round" stroke-miterlimit="10" d="
				M35.55,20.386c0,2.66,1.74,4.365,4.538,7.914c2.797-3.549,4.538-5.254,4.538-7.914c0-2.646-2.029-4.794-4.538-4.794
				C37.58,15.592,35.55,17.74,35.55,20.386z"/>

            <path fill="#FFFFFF" stroke="#FFFFFF" stroke-width="1.7059" stroke-linecap="round" stroke-linejoin="round" stroke-miterlimit="10" d="
				M35.55,59.79c0-2.66,1.74-4.365,4.538-7.913c2.797,3.548,4.538,5.253,4.538,7.913c0,2.646-2.029,4.795-4.538,4.795
				C37.58,64.584,35.55,62.434,35.55,59.79z"/>
		</g>
            <g>
			
				<path fill="#FFFFFF" stroke="#FFFFFF" stroke-width="1.7059" stroke-linecap="round" stroke-linejoin="round" stroke-miterlimit="10" d="
				M54.042,26.116c-2.184,1.331-2.73,3.771-4.229,8.069c4.297,0.784,6.582,1.501,8.766,0.188c2.186-1.33,2.936-4.265,1.689-6.534
				C59.024,25.554,56.227,24.786,54.042,26.116z"/>

                <path fill="#FFFFFF" stroke="#FFFFFF" stroke-width="1.7059" stroke-linecap="round" stroke-linejoin="round" stroke-miterlimit="10" d="
				M21.597,45.802c2.183-1.312,4.469-0.598,8.768,0.188c-1.501,4.299-2.046,6.738-4.23,8.068c-2.183,1.33-4.981,0.562-6.227-1.723
				C18.662,50.068,19.413,47.132,21.597,45.802z"/>
		</g>
            <g>
			
				<path fill="#FFFFFF" stroke="#FFFFFF" stroke-width="1.7059" stroke-linecap="round" stroke-linejoin="round" stroke-miterlimit="10" d="
				M58.579,45.802c-2.184-1.312-4.469-0.598-8.766,0.188c1.498,4.299,2.045,6.738,4.229,8.068c2.186,1.33,4.982,0.562,6.227-1.723
				C61.514,50.068,60.764,47.132,58.579,45.802z"/>

                <path fill="#FFFFFF" stroke="#FFFFFF" stroke-width="1.7059" stroke-linecap="round" stroke-linejoin="round" stroke-miterlimit="10" d="
				M26.134,26.116c2.185,1.331,2.729,3.771,4.23,8.069c-4.299,0.784-6.585,1.501-8.768,0.188c-2.184-1.33-2.935-4.265-1.689-6.534
				C21.152,25.554,23.951,24.786,26.134,26.116z"/>
		</g>
	</g>
</g>
</svg>
