<svg xml:space="preserve" fill-rule="evenodd" stroke-linejoin="round" stroke-miterlimit="2" clip-rule="evenodd" viewBox="0 0 512 80" xmlns="http://www.w3.org/2000/svg" width="512" height="80" fill="currentColor">
      <path d="M125.806 18.664h-19.838V7.942h51.474v10.722h-19.84v51.829h-11.795z"></path>
    <path d="M154.858 52.353c.716 5.45 5.452 9.383 13.137 9.383 4.022 0 9.294-1.519 11.795-4.113l6.971 6.885c-4.648 4.822-12.243 7.149-18.946 7.149-15.191 0-24.217-9.383-24.217-23.504 0-13.404 9.116-23.054 23.414-23.054 14.746 0 23.95 9.114 22.251 27.254zm23.95-9.022c-.714-5.72-5.182-8.582-11.439-8.582-5.899 0-10.723 2.862-12.332 8.582zm43.167-5.185c-3.13-2.95-6.704-3.932-10.905-3.932-5.182 0-8.043 1.608-8.043 4.381 0 2.856 2.591 4.467 8.222 4.824 8.311.532 18.858 2.412 18.858 14.118 0 7.774-6.343 14.477-18.948 14.477-6.97 0-13.94-1.157-20.373-7.861l5.36-7.779c3.127 3.486 10.277 6.08 15.192 6.168 4.111.096 7.954-2.055 7.954-5.268 0-3.038-2.502-4.289-8.757-4.649-8.311-.626-18.231-3.659-18.231-13.672 0-10.188 10.545-13.76 18.588-13.76 6.882 0 12.067 1.337 17.161 5.806zm27.694-24.128v12.509h12.152v9.384H249.58v19.034c0 4.197 2.324 6.257 5.719 6.257 1.698 0 3.665-.534 5.27-1.343l3.04 9.296c-3.127 1.25-5.719 1.786-9.026 1.874-9.559.358-15.817-5.092-15.817-16.084V35.911h-8.221v-9.384h8.221V15.178zm92.801 56.475V46.901c0-5.805-3.041-11.081-9.026-11.081-5.897 0-9.381 5.274-9.381 11.081v23.592h-10.904V26.35h10.098l.806 5.362c2.324-4.469 7.414-6.077 11.616-6.077 5.272 0 10.545 2.143 13.048 8.224 3.933-6.257 9.025-8.046 14.746-8.046 12.509 0 18.677 7.685 18.677 20.911v23.773h-10.906V46.724c0-5.806-2.412-10.723-8.307-10.723-5.9 0-9.566 5.095-9.566 10.9v23.594h-10.9zm120.824-10.634c-1.61.809-3.572 1.343-5.272 1.343-3.396 0-5.72-2.058-5.72-6.257V35.911h12.244v-9.384h-12.155V14.018l-10.902 1.159v11.35l-17.783-.041-.359 6.029c-2.502-4.375-8.133-7.148-14.028-7.148-12.871-.092-22.969 7.863-22.969 23.053 0 15.465 9.648 23.507 22.698 23.418 4.914-.092 11.795-2.595 14.297-7.778l.534 6.433h10.282V35.911h7.324v19.034c0 10.995 6.258 16.445 15.82 16.084 3.307-.088 5.9-.624 9.024-1.874zm-52.993 1.965c-7.242 0-13.05-5.002-13.05-13.405 0-8.397 5.808-13.311 13.05-13.311 17.16.001 17.16 26.716 0 26.716M309.274 48.51c0 12.692-8.67 22.967-22.966 22.967-14.3 0-22.876-10.275-22.876-22.967 0-12.599 8.756-22.966 22.786-22.966 14.032 0 23.056 10.367 23.056 22.966m-34.938 0c0 6.706 4.018 12.959 11.972 12.959 7.956 0 11.973-6.256 11.973-12.959 0-6.613-4.647-13.046-11.973-13.046-7.865 0-11.972 6.434-11.972 13.046m237.664 0c0 12.692-8.67 22.967-22.968 22.967s-22.877-10.275-22.877-22.967c0-12.599 8.757-22.966 22.787-22.966S512 35.911 512 48.51m-34.943 0c0 6.706 4.021 12.959 11.975 12.959s11.976-6.256 11.976-12.959c0-6.613-4.648-13.046-11.976-13.046-7.864 0-11.975 6.434-11.975 13.046"></path>
    <path d="M0 40C0 17.906 17.907 0 40 0c22.095 0 39.998 17.906 39.998 40 0 22.092-17.903 40-39.998 40C17.907 80 0 62.092 0 40m57.099 15.94c2.112 0 4.069-1.175 5.104-3.073 1.589-2.892.615-6.625-2.168-8.321l-.003-.001c-1.043-.626-2.152-.922-3.496-.922-1.295 0-2.739.274-4.564.627q-.766.149-1.633.309a1.352 1.352 0 0 0-1.032 1.775c.208.595.396 1.152.575 1.678 1.171 3.461 1.988 5.722 4.218 7.081a5.77 5.77 0 0 0 2.999.847M39.068 14.206c-3.236.001-5.88 2.747-5.88 6.135 0 2.675 1.439 4.529 3.677 7.305.357.443.738.916 1.141 1.428a1.35 1.35 0 0 0 2.123-.001q.606-.767 1.143-1.429c2.235-2.774 3.674-4.628 3.674-7.302.001-3.389-2.643-6.136-5.878-6.136m-15.66 22.167c1.292 0 2.729-.273 4.548-.623q.771-.15 1.65-.312c.389-.071.726-.308.924-.649.2-.341.238-.753.108-1.125q-.31-.893-.575-1.681c-1.171-3.46-1.987-5.72-4.218-7.079a5.77 5.77 0 0 0-2.998-.848c-2.113 0-4.069 1.176-5.103 3.071-1.589 2.897-.615 6.63 2.172 8.326l.003.002c1.036.624 2.144.918 3.489.918m-.559 19.567a5.77 5.77 0 0 0 2.998-.847c2.23-1.359 3.047-3.62 4.218-7.081.179-.526.367-1.083.575-1.678a1.354 1.354 0 0 0-1.032-1.775q-.867-.16-1.633-.309c-1.825-.353-3.269-.627-4.564-.627-1.344 0-2.453.296-3.496.922l-.003.001c-2.783 1.696-3.757 5.429-2.168 8.321 1.035 1.898 2.992 3.073 5.105 3.073m16.217 9.854c3.235 0 5.879-2.747 5.878-6.136 0-2.674-1.439-4.528-3.674-7.302q-.537-.662-1.144-1.43a1.35 1.35 0 0 0-2.122 0c-.403.512-.784.985-1.141 1.428-2.238 2.776-3.677 4.63-3.677 7.305 0 3.388 2.644 6.134 5.88 6.135m17.473-29.421c1.345 0 2.453-.294 3.49-.918l.002-.002c2.787-1.696 3.761-5.429 2.172-8.326-1.034-1.895-2.99-3.071-5.102-3.071a5.76 5.76 0 0 0-2.998.848c-2.232 1.359-3.048 3.619-4.219 7.079-.178.525-.367 1.086-.575 1.681-.13.372-.092.784.108 1.125.198.341.535.578.925.649q.878.161 1.649.312c1.82.35 3.256.623 4.548.623"></path>
</svg>