<svg width="100%" height="100%" viewBox="0 0 473 178" version="1.1" xmlns="http://www.w3.org/2000/svg" xml:space="preserve"
     style="fill-rule:evenodd;clip-rule:evenodd;stroke-linejoin:round;stroke-miterlimit:2;">
    <g id="path30" transform="matrix(0.122587,0,0,-0.122587,-116.829,618.157)">
        <path d="M1772.81,4390.13L1470.14,4390.13C1462.33,4390.13 1456,4383.79 1456,4375.97L1456,4228C1456,4220.19 1462.33,4213.83 1470.14,4213.83L1588.21,4213.83L1588.21,4029.98C1588.21,4029.98 1561.7,4020.94 1488.4,4020.94C1401.93,4020.94 1281.13,4052.54 1281.13,4318.18C1281.13,4583.86 1406.92,4618.82 1525.01,4618.82C1627.24,4618.82 1671.27,4600.83 1699.3,4592.16C1708.11,4589.46 1716.25,4598.22 1716.25,4606.04L1750.01,4749.02C1750.01,4752.67 1748.77,4757.08 1744.61,4760.07C1733.23,4768.18 1663.8,4807.03 1488.4,4807.03C1286.35,4807.03 1079.08,4721.07 1079.08,4307.81C1079.08,3894.55 1316.38,3832.97 1516.35,3832.97C1681.92,3832.97 1782.36,3903.72 1782.36,3903.72C1786.5,3906.01 1786.95,3911.79 1786.95,3914.45L1786.95,4375.97C1786.95,4383.79 1780.62,4390.13 1772.81,4390.13"
              style="fill:rgb(22,19,18);fill-rule:nonzero;"/>
    </g>
    <g id="path32" transform="matrix(0.122587,0,0,-0.122587,-116.829,618.157)">
        <path d="M3332.65,4757.52C3332.65,4765.39 3326.41,4771.75 3318.59,4771.75L3148.17,4771.75C3140.39,4771.75 3134.06,4765.39 3134.06,4757.52C3134.06,4757.48 3134.11,4428.17 3134.11,4428.17L2868.46,4428.17L2868.46,4757.52C2868.46,4765.39 2862.2,4771.75 2854.4,4771.75L2683.99,4771.75C2676.24,4771.75 2669.91,4765.39 2669.91,4757.52L2669.91,3865.74C2669.91,3857.87 2676.24,3851.47 2683.99,3851.47L2854.4,3851.47C2862.2,3851.47 2868.46,3857.87 2868.46,3865.74L2868.46,4247.18L3134.11,4247.18C3134.11,4247.18 3133.64,3865.77 3133.64,3865.74C3133.64,3857.87 3139.96,3851.47 3147.76,3851.47L3318.58,3851.47C3326.39,3851.47 3332.63,3857.87 3332.65,3865.74L3332.65,4757.52"
              style="fill:rgb(22,19,18);fill-rule:nonzero;"/>
    </g>
    <g id="path34" transform="matrix(0.122587,0,0,-0.122587,-116.829,618.157)">
        <path d="M2094.4,4640.5C2094.4,4701.86 2045.21,4751.45 1984.51,4751.45C1923.87,4751.45 1874.63,4701.86 1874.63,4640.5C1874.63,4579.19 1923.87,4529.47 1984.51,4529.47C2045.21,4529.47 2094.4,4579.19 2094.4,4640.5"
              style="fill:rgb(22,19,18);fill-rule:nonzero;"/>
    </g>
    <g id="path36" transform="matrix(0.122587,0,0,-0.122587,-116.829,618.157)">
        <path d="M2082.22,4053.85L2082.22,4465.5C2082.22,4473.32 2075.91,4479.71 2068.12,4479.71L1898.23,4479.71C1890.44,4479.71 1883.47,4471.67 1883.47,4463.86L1883.47,3874.09C1883.47,3856.76 1894.27,3851.6 1908.24,3851.6L2061.3,3851.6C2078.1,3851.6 2082.22,3859.85 2082.22,3874.37L2082.22,4053.85"
              style="fill:rgb(22,19,18);fill-rule:nonzero;"/>
    </g>
    <g id="path38" transform="matrix(0.122587,0,0,-0.122587,-116.829,618.157)">
        <path d="M3980.32,4478.37L3811.21,4478.37C3803.46,4478.37 3797.14,4471.97 3797.14,4464.11L3797.14,4026.84C3797.14,4026.84 3754.17,3995.41 3693.19,3995.41C3632.22,3995.41 3616.04,4023.08 3616.04,4082.79L3616.04,4464.11C3616.04,4471.97 3609.74,4478.37 3601.97,4478.37L3430.33,4478.37C3422.59,4478.37 3416.24,4471.97 3416.24,4464.11L3416.24,4053.91C3416.24,3876.56 3515.08,3833.18 3651.05,3833.18C3762.61,3833.18 3852.55,3894.8 3852.55,3894.8C3852.55,3894.8 3856.83,3862.32 3858.77,3858.47C3860.7,3854.63 3865.75,3850.75 3871.21,3850.75L3980.4,3851.24C3988.14,3851.24 3994.49,3857.64 3994.49,3865.47L3994.43,4464.11C3994.43,4471.97 3988.12,4478.37 3980.32,4478.37"
              style="fill:rgb(22,19,18);fill-rule:nonzero;"/>
    </g>
    <g id="path40" transform="matrix(0.122587,0,0,-0.122587,-116.829,618.157)">
        <path d="M4375.84,3995.95C4317.18,3997.73 4277.39,4024.35 4277.39,4024.35L4277.39,4306.76C4277.39,4306.76 4316.64,4330.82 4364.8,4335.12C4425.7,4340.57 4484.38,4322.18 4484.38,4176.9C4484.38,4023.71 4457.9,3993.47 4375.84,3995.95ZM4442.54,4498.4C4346.49,4498.4 4281.16,4455.54 4281.16,4455.54L4281.16,4757.52C4281.16,4765.39 4274.86,4771.75 4267.1,4771.75L4096.19,4771.75C4088.42,4771.75 4082.11,4765.39 4082.11,4757.52L4082.11,3865.74C4082.11,3857.87 4088.42,3851.47 4096.21,3851.47L4214.79,3851.47C4220.13,3851.47 4224.17,3854.22 4227.16,3859.04C4230.11,3863.84 4234.36,3900.16 4234.36,3900.16C4234.36,3900.16 4304.24,3833.94 4436.53,3833.94C4591.85,3833.94 4680.92,3912.71 4680.92,4187.59C4680.92,4462.48 4538.66,4498.4 4442.54,4498.4"
              style="fill:rgb(22,19,18);fill-rule:nonzero;"/>
    </g>
    <g id="path42" transform="matrix(0.122587,0,0,-0.122587,-116.829,618.157)">
        <path d="M2572.02,4479.79L2444.18,4479.79C2444.18,4479.79 2443.99,4648.64 2443.99,4648.67C2443.99,4655.07 2440.69,4658.26 2433.3,4658.26L2259.1,4658.26C2252.32,4658.26 2248.69,4655.28 2248.69,4648.77L2248.69,4474.25C2248.69,4474.25 2161.39,4453.18 2155.48,4451.47C2149.61,4449.77 2145.28,4444.35 2145.28,4437.88L2145.28,4328.21C2145.28,4320.32 2151.58,4313.96 2159.37,4313.96L2248.69,4313.96L2248.69,4050.12C2248.69,3854.15 2386.15,3834.9 2478.9,3834.9C2521.29,3834.9 2571.99,3848.51 2580.36,3851.6C2585.42,3853.46 2588.36,3858.71 2588.36,3864.39L2588.51,3985.04C2588.51,3992.9 2581.86,3999.27 2574.38,3999.27C2566.92,3999.27 2547.87,3996.24 2528.25,3996.24C2465.45,3996.24 2444.18,4025.43 2444.18,4063.23C2444.18,4100.99 2444.17,4313.96 2444.17,4313.96L2572.02,4313.96C2579.81,4313.96 2586.12,4320.32 2586.12,4328.21L2586.12,4465.58C2586.12,4473.45 2579.81,4479.79 2572.02,4479.79"
              style="fill:rgb(22,19,18);fill-rule:nonzero;"/>
    </g>
</svg>