<svg width="100%" height="100%" viewBox="0 0 700 200" version="1.1" xmlns="http://www.w3.org/2000/svg" xml:space="preserve">
    <path d="M34.607,85.808c-19.38,0 -34.607,-15.227 -34.607,-34.607c0,-19.38 15.227,-34.607 34.607,-34.607c19.38,-0 34.607,15.227 34.607,34.607c0,4.153 -2.768,6.921 -6.921,6.921c-4.153,0 -6.921,-2.768 -6.921,-6.921c-0,-11.766 -8.998,-20.764 -20.765,-20.764c-11.766,-0 -20.764,8.998 -20.764,20.764c-0,11.766 8.998,20.764 20.764,20.764c4.153,0 6.922,2.769 6.922,6.922c-0,4.153 -2.769,6.921 -6.922,6.921Z"
                          style="fill-rule:nonzero;" fill="#e2e8f0"/>
    <path d="M131.507,85.808c-4.153,0 -6.921,-2.768 -6.921,-6.921c-0,-4.153 2.768,-6.922 6.921,-6.922c11.767,0 20.765,-8.998 20.765,-20.764c-0,-11.766 -8.998,-20.764 -20.765,-20.764c-11.766,-0 -20.764,8.998 -20.764,20.764c0,4.153 -2.769,6.921 -6.921,6.921c-4.153,0 -6.922,-2.768 -6.922,-6.921c0,-19.38 15.227,-34.607 34.607,-34.607c19.38,-0 34.608,15.227 34.608,34.607c-0,19.38 -15.228,34.607 -34.608,34.607Z"
          style="fill-rule:nonzero;" fill="#e2e8f0"/>
    <path d="M34.607,182.708c-19.38,0 -34.607,-15.227 -34.607,-34.607c0,-19.38 15.227,-34.607 34.607,-34.607c4.153,-0 6.922,2.769 6.922,6.921c-0,4.153 -2.769,6.922 -6.922,6.922c-11.766,-0 -20.764,8.998 -20.764,20.764c-0,11.767 8.998,20.764 20.764,20.764c11.767,0 20.765,-8.997 20.765,-20.764c-0,-4.153 2.768,-6.921 6.921,-6.921c4.153,-0 6.921,2.768 6.921,6.921c0,19.38 -15.227,34.607 -34.607,34.607Z"
          style="fill-rule:nonzero;" fill="#e2e8f0"/>
    <path d="M131.507,182.708c-19.38,0 -34.607,-15.227 -34.607,-34.607c0,-4.153 2.769,-6.921 6.922,-6.921c4.152,-0 6.921,2.768 6.921,6.921c0,11.767 8.998,20.764 20.764,20.764c11.767,0 20.765,-8.997 20.765,-20.764c-0,-11.766 -8.998,-20.764 -20.765,-20.764c-4.153,-0 -6.921,-2.769 -6.921,-6.922c-0,-4.152 2.768,-6.921 6.921,-6.921c19.38,-0 34.608,15.227 34.608,34.607c-0,19.38 -15.228,34.607 -34.608,34.607Z"
          style="fill-rule:nonzero;" fill="#e2e8f0"/>
    <path d="M62.293,155.023c-4.153,-0 -6.921,-2.769 -6.921,-6.922l-0,-96.9c-0,-4.153 2.768,-6.921 6.921,-6.921c4.153,-0 6.921,2.768 6.921,6.921l0,96.9c0,4.153 -2.768,6.922 -6.921,6.922Z" style="fill-rule:nonzero;" fill="#e2e8f0"/>
    <path d="M103.822,155.023c-4.153,-0 -6.922,-2.769 -6.922,-6.922l0,-96.9c0,-4.153 2.769,-6.921 6.922,-6.921c4.152,-0 6.921,2.768 6.921,6.921l0,96.9c0,4.153 -2.769,6.922 -6.921,6.922Z" style="fill-rule:nonzero;" fill="#e2e8f0"/>
    <path d="M131.507,85.808l-96.9,0c-4.153,0 -6.921,-2.768 -6.921,-6.921c-0,-4.153 2.768,-6.922 6.921,-6.922l96.9,0c4.153,0 6.922,2.769 6.922,6.922c-0,4.153 -2.769,6.921 -6.922,6.921Z" style="fill-rule:nonzero;" fill="#e2e8f0"/>
    <path d="M131.507,127.337l-96.9,-0c-4.153,-0 -6.921,-2.769 -6.921,-6.922c-0,-4.152 2.768,-6.921 6.921,-6.921l96.9,-0c4.153,-0 6.922,2.769 6.922,6.921c-0,4.153 -2.769,6.922 -6.922,6.922Z" style="fill-rule:nonzero;" fill="#e2e8f0"/>
    <path d="M199.416,181.332l0,-163.362l34.646,0c13.46,0 23.67,3.671 30.63,11.014c6.96,7.342 10.44,17.743 10.44,31.203l-0,76.404c-0,15.296 -3.71,26.577 -11.128,33.842c-7.419,7.266 -18.088,10.899 -32.007,10.899l-32.581,-0Zm23.403,-141.335l0,119.308l10.784,0c6.577,0 11.242,-1.644 13.996,-4.932c2.753,-3.289 4.13,-8.452 4.13,-15.488l-0,-78.698c-0,-6.424 -1.301,-11.395 -3.901,-14.913c-2.6,-3.518 -7.342,-5.277 -14.225,-5.277l-10.784,-0Z"
          style="fill-rule:nonzero;" fill="#e2e8f0"/>
    <rect x="297.846" y="17.97" width="23.403" height="163.361" style="fill-rule:nonzero;" fill="#e2e8f0"/>
    <path d="M391.228,124.201l-11.472,-59.195l-0.459,-0l-11.472,59.195l23.403,0Zm-57.819,57.131l36.481,-163.362l19.503,0l36.481,163.362l-23.403,-0l-6.884,-35.105l-31.892,0l-6.883,35.105l-23.403,-0Z" style="fill-rule:nonzero;" fill="#e2e8f0"/>
    <path d="M437.346,181.332l-0,-163.362l23.402,0l0,139.959l46.347,-0l0,23.403l-69.749,-0Z" style="fill-rule:nonzero;" fill="#e2e8f0"/>
    <path d="M520.862,56.516c-0,-6.577 1.147,-12.389 3.441,-17.437c2.295,-5.048 5.354,-9.254 9.178,-12.619c3.671,-3.212 7.839,-5.66 12.504,-7.342c4.666,-1.683 9.369,-2.524 14.111,-2.524c4.742,-0 9.445,0.841 14.11,2.524c4.666,1.682 8.91,4.13 12.734,7.342c3.671,3.365 6.654,7.571 8.949,12.619c2.294,5.048 3.441,10.86 3.441,17.437l0,86.27c0,6.883 -1.147,12.772 -3.441,17.667c-2.295,4.894 -5.278,8.948 -8.949,12.16c-3.824,3.365 -8.068,5.889 -12.734,7.571c-4.665,1.683 -9.368,2.524 -14.11,2.524c-4.742,0 -9.445,-0.841 -14.111,-2.524c-4.665,-1.682 -8.833,-4.206 -12.504,-7.571c-3.824,-3.212 -6.883,-7.266 -9.178,-12.16c-2.294,-4.895 -3.441,-10.784 -3.441,-17.667l-0,-86.27Zm23.403,86.27c-0,5.659 1.567,9.827 4.703,12.504c3.136,2.677 6.845,4.015 11.128,4.015c4.283,0 7.992,-1.338 11.128,-4.015c3.135,-2.677 4.703,-6.845 4.703,-12.504l0,-86.27c0,-5.659 -1.568,-9.827 -4.703,-12.504c-3.136,-2.677 -6.845,-4.015 -11.128,-4.015c-4.283,-0 -7.992,1.338 -11.128,4.015c-3.136,2.677 -4.703,6.845 -4.703,12.504l-0,86.27Z"
          style="fill-rule:nonzero;" fill="#e2e8f0"/>
    <path d="M618.603,56.516c0,-6.577 1.147,-12.389 3.442,-17.437c2.294,-5.048 5.353,-9.254 9.177,-12.619c3.671,-3.212 7.84,-5.66 12.505,-7.342c4.665,-1.683 9.369,-2.524 14.11,-2.524c4.742,-0 9.446,0.841 14.111,2.524c4.665,1.682 8.91,4.13 12.734,7.342c3.671,3.365 6.654,7.571 8.948,12.619c2.294,5.048 3.442,10.86 3.442,17.437l-0,8.26l-23.403,0l-0,-8.26c-0,-5.659 -1.568,-9.827 -4.704,-12.504c-3.135,-2.677 -6.845,-4.015 -11.128,-4.015c-4.283,-0 -7.992,1.338 -11.127,4.015c-3.136,2.677 -4.704,6.845 -4.704,12.504l0,86.27c0,5.659 1.568,9.827 4.704,12.504c3.135,2.677 6.844,4.015 11.127,4.015c4.283,0 7.993,-1.338 11.128,-4.015c3.136,-2.677 4.704,-6.845 4.704,-12.504l-0,-30.745l-18.585,-0l0,-20.65l41.988,0l-0,51.395c-0,6.883 -1.148,12.772 -3.442,17.667c-2.294,4.894 -5.277,8.948 -8.948,12.16c-3.824,3.365 -8.069,5.889 -12.734,7.571c-4.665,1.683 -9.369,2.524 -14.111,2.524c-4.741,0 -9.445,-0.841 -14.11,-2.524c-4.665,-1.682 -8.834,-4.206 -12.505,-7.571c-3.824,-3.212 -6.883,-7.266 -9.177,-12.16c-2.295,-4.895 -3.442,-10.784 -3.442,-17.667l0,-86.27Z"
          style="fill-rule:nonzero;" fill="#e2e8f0"/>
</svg>
