<?xml version="1.0" encoding="utf-8"?>
<!-- Generator: Adobe Illustrator 16.0.0, SVG Export Plug-In . SVG Version: 6.00 Build 0)  -->
<!DOCTYPE svg PUBLIC "-//W3C//DTD SVG 1.1//EN" "http://www.w3.org/Graphics/SVG/1.1/DTD/svg11.dtd">
<svg version="1.1" id="Layer_1" xmlns="http://www.w3.org/2000/svg" xmlns:xlink="http://www.w3.org/1999/xlink" x="0px" y="0px"
	 width="647.692px" height="233.489px" viewBox="36.642 11.42 647.692 233.489"
	 enable-background="new 36.642 11.42 647.692 233.489" xml:space="preserve">
<g>
	<path fill="#231F20" d="M186.804,185.623c0.168,0.506,0.507,1.349,1.01,1.517c3.032,2.191,6.905,3.199,11.118,3.199
		c4.042,0,8.927-1.008,11.791-3.367c2.524-2.022,4.042-5.052,4.042-9.094c0-8.422-4.212-10.105-17.348-14.992
		c-17.01-6.397-30.147-16.673-30.147-33.179c0-10.441,4.882-19.201,11.454-25.096c7.411-6.738,19.705-10.779,35.873-10.779
		c9.6,0,18.527,1.347,22.401,3.033c1.009,10.273,1.851,20.547,2.526,30.821c-5.222,0.841-11.454,1.516-17.348,2.187l-3.875-15.663
		c-0.164-0.506-0.333-0.842-0.672-1.179c-2.022-1.684-5.223-2.695-8.421-2.695c-4.041,0-7.412,1.011-10.105,3.033
		c-2.19,1.685-4.547,4.883-4.547,9.6c0,8.422,3.706,10.105,19.199,15.496c18.697,6.401,28.294,15.663,28.294,31.665
		c0,10.61-4.378,20.547-12.461,26.949c-8.084,6.401-19.202,9.6-35.539,9.6c-7.073,0-19.031-0.842-25.938-3.367
		c-1.346-10.612-2.526-21.055-3.706-31.327c5.392-1.179,11.957-2.358,17.685-3.031L186.804,185.623z"/>
	<path fill="#231F20" d="M254.681,231.099l8.086-0.677c0.338,0,0.673-0.505,0.673-0.842l0.168-81.177l-10.779-0.338
		c0-4.547,0.169-9.431,0.337-13.811c8.086-0.841,33.516-5.219,34.357-5.219c0.333,0,0.333,0,0.333,0.336
		c0.675,3.032,1.181,6.23,1.851,9.265l1.011,0.167c17.011-9.094,19.032-9.599,25.938-9.599
		c13.978-0.167,25.769,15.665,25.601,33.178c0,7.747-1.853,15.494-5.054,22.569c-2.36,5.055-6.233,11.284-12.97,16.34
		c-3.367,2.525-11.282,5.387-18.021,5.387c-6.401,0-11.118-0.843-14.822-2.358l-1.18,0.338c0.168,8.421,0.168,17.01,0.168,25.602
		l13.809,0.335c0,4.714-0.168,9.601-0.336,13.979c-8.086,0-18.189,0-27.116,0.167c-6.737,0-15.664,0-22.232,0.168
		C254.513,240.359,254.513,235.477,254.681,231.099z M310.938,153.119c-1.35-2.024-3.54-4.379-6.739-4.379
		c-3.367,0-8.254,1.684-13.137,4.714c-0.167,9.431-0.337,22.738-0.337,32.173c0,3.365,6.741,5.893,10.277,5.893
		c3.031,0,6.569-1.178,8.588-4.379c2.358-3.538,3.873-9.431,3.873-18.357C313.461,160.865,312.451,155.474,310.938,153.119z"/>
	<path fill="#231F20" d="M351.021,191.18l8.085-0.505c0.337,0,0.673-0.336,0.673-0.672c0-25.77,0-58.781,0-83.876L349,105.789
		c0-4.715,0.169-9.938,0.337-14.316c9.6-0.843,36.213-4.377,37.895-4.377c0.338,0,0.508,0.168,0.508,0.673
		c0,13.979-0.508,32.675-0.676,49.852l0.845,0.169c16.505-8.084,19.369-8.589,25.935-8.589c7.072,0,15.832,6.737,19.874,13.811
		c1.684,3.031,2.525,7.075,2.525,12.461c0,10.444-0.334,23.579-0.505,35.202l8.588,0.336c0,4.55,0,9.601-0.169,13.978
		c-6.063,0-14.146,0-20.715,0c-7.069,0-15.157,0.17-21.56,0.17c0-4.381,0-9.262,0.171-13.979l5.893-0.336
		c0.336-0.168,0.509-0.505,0.509-0.84c0.165-7.413,0-18.022,0-24.588c0-6.569,0.165-10.778-1.518-13.644
		c-1.516-2.36-3.366-3.367-6.569-3.367c-3.873,0-8.929,2.189-12.968,4.885c-0.169,10.272-0.338,27.115-0.338,37.386l7.748,0.507
		c0,4.549,0,9.431-0.334,13.812c-6.233,0-14.651,0-22.233,0c-6.904,0-14.822,0.168-21.39,0.168
		C350.85,200.612,350.85,195.562,351.021,191.18z"/>
	<path fill="#231F20" d="M451.401,148.063c0-4.549,0.168-9.768,0.333-14.314c9.098-0.673,36.383-4.547,37.731-4.547
		c0.335,0,0.335,0.168,0.335,0.505c-0.17,18.19-0.505,44.126-0.505,60.969l9.26,0.336c0,4.718,0,9.43,0,13.978
		c-6.396,0-15.997,0-23.243,0c-7.073,0-16,0.17-22.905,0.17c0-4.55,0-9.601,0.17-13.979l8.926-0.336
		c0.508-0.168,0.674-0.505,0.674-0.84v-41.435L451.401,148.063z M489.3,104.105c0,9.098-7.413,15.16-15.833,15.16
		c-7.244,0-14.651-6.232-14.651-14.823c0-7.073,6.229-13.978,15.492-13.978C484.079,90.463,489.3,97.033,489.3,104.105z"/>
	<path fill="#231F20" d="M559.359,199.097c-14.993,7.074-18.694,7.58-22.906,7.58c-6.396,0-13.474-2.024-19.705-8.086
		c-5.727-5.728-10.104-14.822-10.104-25.936c0-12.803,4.377-24.251,12.97-33.347c5.893-6.737,15.663-10.105,23.244-10.105
		c6.061,0,11.281,1.177,14.481,2.021l1.181-0.505c0-7.748-0.335-16.337-0.508-24.59l-12.632-0.505c-0.165-4.718,0-9.601,0.17-14.148
		c9.769-0.843,38.061-4.378,39.914-4.378c0.171,0,0.335,0.168,0.335,0.505c0,27.117-0.503,70.232-0.672,100.717
		c0,1.011,0.336,1.686,1.182,1.686l8.586-0.508c0,4.214,0.168,9.431,0,13.812c-2.189,1.008-16.843,3.365-28.127,3.365
		c-2.525-1.85-4.377-4.211-6.228-7.576H559.359L559.359,199.097z M558.182,147.896c-2.356-1.01-6.062-2.357-10.102-2.357
		c-3.202,0-6.573,1.18-8.423,4.377c-2.526,4.041-4.044,9.601-4.044,19.705c0,6.739,1.013,11.622,3.369,15.328
		c1.347,2.021,4.377,4.38,7.58,4.38c3.366,0,6.398-0.677,10.777-3.032c0.673-0.333,0.843-1.179,0.843-2.863
		C558.182,172.319,558.012,158.841,558.182,147.896z"/>
	<path fill="#231F20" d="M614.941,198.591c-7.747-6.569-12.461-15.664-12.461-28.631c0-13.306,5.896-25.263,16.001-32.675
		c7.407-5.556,17.514-8.084,27.621-8.084c8.923,0,16.503,2.022,23.075,6.064c8.59,5.556,15.156,16.165,15.156,31.161
		c0,14.819-8.083,27.452-18.018,33.853c-6.572,4.209-14.995,6.398-24.594,6.398C631.785,206.677,621.679,204.317,614.941,198.591z
		 M651.151,189.496c3.203-4.379,4.041-11.116,4.041-22.402c0-10.272-1.346-15.494-3.029-19.537
		c-1.852-3.535-4.886-5.218-7.914-5.218c-3.037,0-5.727,1.18-7.918,4.21c-2.695,4.042-4.379,10.444-4.379,20.715
		c0,12.464,1.514,18.191,3.873,21.729c2.19,3.37,4.716,4.549,7.747,4.549C646.438,193.539,649.129,192.696,651.151,189.496z"/>
</g>
<g>
	<g>
		<path fill="#FF2D55" d="M142.52,21.045L94.396,69.176H65.51l-28.868,38.5c0,0,30.588-8.521,48.436-4.523l-4.837,3.293
			l16.533,14.895l3.317-5.264c8.857,20.251-5.692,49.355-5.692,49.355l38.498-28.877v-28.88l48.123-48.128l9.633-48.126
			L142.52,21.045z"/>
	</g>
	<path fill="#FF2D55" d="M48.78,157.431c0,0,31.91-9.782,38.015-15.883c6.134-6.13,6.134-16.021,0-22.151
		c-6.104-6.116-16.014-6.122-22.13,0C58.561,125.529,48.78,157.431,48.78,157.431z"/>
</g>
</svg>
